<svg width="715" height="250" viewBox="0 0 715 250" fill="none" xmlns="http://www.w3.org/2000/svg">
<rect width="715" height="250" rx="30" fill="white"/>
<path d="M307.906 151.125C304.531 152.875 300.333 153.75 295.312 153.75C288.812 153.75 283.604 151.698 279.688 147.594C275.771 143.49 273.812 138.104 273.812 131.438C273.812 124.271 276.01 118.479 280.406 114.062C284.823 109.646 290.396 107.438 297.125 107.438C301.458 107.438 305.052 108.052 307.906 109.281V116.656C304.885 114.865 301.552 113.969 297.906 113.969C293.052 113.969 289.115 115.521 286.094 118.625C283.094 121.729 281.594 125.875 281.594 131.062C281.594 136 283 139.938 285.812 142.875C288.625 145.792 292.323 147.25 296.906 147.25C301.135 147.25 304.802 146.25 307.906 144.25V151.125ZM334.156 127.906C333.281 127.219 332.021 126.875 330.375 126.875C328.229 126.875 326.438 127.844 325 129.781C323.562 131.719 322.844 134.354 322.844 137.688V153H315.594V121H322.844V127.594H322.969C323.677 125.344 324.76 123.594 326.219 122.344C327.698 121.073 329.344 120.438 331.156 120.438C332.469 120.438 333.469 120.635 334.156 121.031V127.906ZM365.812 138.969H344C344.083 141.927 344.99 144.208 346.719 145.812C348.469 147.417 350.865 148.219 353.906 148.219C357.323 148.219 360.458 147.198 363.312 145.156V151C360.396 152.833 356.542 153.75 351.75 153.75C347.042 153.75 343.344 152.302 340.656 149.406C337.99 146.49 336.656 142.396 336.656 137.125C336.656 132.146 338.125 128.094 341.062 124.969C344.021 121.823 347.688 120.25 352.062 120.25C356.438 120.25 359.823 121.656 362.219 124.469C364.615 127.281 365.812 131.188 365.812 136.188V138.969ZM358.812 133.844C358.792 131.24 358.177 129.219 356.969 127.781C355.76 126.323 354.094 125.594 351.969 125.594C349.885 125.594 348.115 126.354 346.656 127.875C345.219 129.396 344.333 131.385 344 133.844H358.812ZM401.812 153H394.562V147.562H394.438C392.104 151.688 388.51 153.75 383.656 153.75C379.719 153.75 376.562 152.323 374.188 149.469C371.833 146.594 370.656 142.688 370.656 137.75C370.656 132.458 371.958 128.219 374.562 125.031C377.188 121.844 380.677 120.25 385.031 120.25C389.344 120.25 392.479 121.979 394.438 125.438H394.562V105.625H401.812V153ZM394.656 138.375V134.188C394.656 131.917 393.917 129.99 392.438 128.406C390.958 126.823 389.073 126.031 386.781 126.031C384.073 126.031 381.938 127.042 380.375 129.062C378.833 131.083 378.062 133.885 378.062 137.469C378.062 140.719 378.802 143.292 380.281 145.188C381.781 147.062 383.792 148 386.312 148C388.792 148 390.802 147.094 392.344 145.281C393.885 143.448 394.656 141.146 394.656 138.375ZM414.938 114.281C413.75 114.281 412.729 113.896 411.875 113.125C411.042 112.354 410.625 111.375 410.625 110.188C410.625 109 411.042 108.01 411.875 107.219C412.729 106.427 413.75 106.031 414.938 106.031C416.167 106.031 417.208 106.427 418.062 107.219C418.917 108.01 419.344 109 419.344 110.188C419.344 111.312 418.917 112.281 418.062 113.094C417.208 113.885 416.167 114.281 414.938 114.281ZM418.531 153H411.281V121H418.531V153ZM444.906 152.656C443.49 153.365 441.625 153.719 439.312 153.719C433.104 153.719 430 150.74 430 144.781V126.688H424.656V121H430V113.594L437.25 111.531V121H444.906V126.688H437.25V142.688C437.25 144.583 437.594 145.938 438.281 146.75C438.969 147.562 440.115 147.969 441.719 147.969C442.948 147.969 444.01 147.615 444.906 146.906V152.656ZM505.031 153V108.188H517.969C534.49 108.188 542.75 115.469 542.75 130.031C542.75 136.948 540.458 142.51 535.875 146.719C531.292 150.906 525.146 153 517.438 153H505.031ZM512.438 114.5V146.719H518.375C523.604 146.719 527.667 145.281 530.562 142.406C533.479 139.531 534.938 135.469 534.938 130.219C534.938 119.74 529.51 114.5 518.656 114.5H512.438ZM577.25 138.969H555.438C555.521 141.927 556.427 144.208 558.156 145.812C559.906 147.417 562.302 148.219 565.344 148.219C568.76 148.219 571.896 147.198 574.75 145.156V151C571.833 152.833 567.979 153.75 563.188 153.75C558.479 153.75 554.781 152.302 552.094 149.406C549.427 146.49 548.094 142.396 548.094 137.125C548.094 132.146 549.562 128.094 552.5 124.969C555.458 121.823 559.125 120.25 563.5 120.25C567.875 120.25 571.26 121.656 573.656 124.469C576.052 127.281 577.25 131.188 577.25 136.188V138.969ZM570.25 133.844C570.229 131.24 569.615 129.219 568.406 127.781C567.198 126.323 565.531 125.594 563.406 125.594C561.323 125.594 559.552 126.354 558.094 127.875C556.656 129.396 555.771 131.385 555.438 133.844H570.25ZM591.531 148.375H591.406V153H584.156V105.625H591.406V126.625H591.531C594.01 122.375 597.635 120.25 602.406 120.25C606.448 120.25 609.604 121.688 611.875 124.562C614.167 127.417 615.312 131.25 615.312 136.062C615.312 141.417 614.031 145.708 611.469 148.938C608.906 152.146 605.406 153.75 600.969 153.75C596.802 153.75 593.656 151.958 591.531 148.375ZM591.344 135.656V139.625C591.344 141.958 592.083 143.938 593.562 145.562C595.062 147.188 596.958 148 599.25 148C601.938 148 604.042 146.958 605.562 144.875C607.104 142.771 607.875 139.844 607.875 136.094C607.875 132.948 607.156 130.49 605.719 128.719C604.302 126.927 602.375 126.031 599.938 126.031C597.354 126.031 595.271 126.948 593.688 128.781C592.125 130.615 591.344 132.906 591.344 135.656ZM626.375 114.281C625.188 114.281 624.167 113.896 623.312 113.125C622.479 112.354 622.062 111.375 622.062 110.188C622.062 109 622.479 108.01 623.312 107.219C624.167 106.427 625.188 106.031 626.375 106.031C627.604 106.031 628.646 106.427 629.5 107.219C630.354 108.01 630.781 109 630.781 110.188C630.781 111.312 630.354 112.281 629.5 113.094C628.646 113.885 627.604 114.281 626.375 114.281ZM629.969 153H622.719V121H629.969V153ZM656.344 152.656C654.927 153.365 653.062 153.719 650.75 153.719C644.542 153.719 641.438 150.74 641.438 144.781V126.688H636.094V121H641.438V113.594L648.688 111.531V121H656.344V126.688H648.688V142.688C648.688 144.583 649.031 145.938 649.719 146.75C650.406 147.562 651.552 147.969 653.156 147.969C654.385 147.969 655.448 147.615 656.344 146.906V152.656Z" fill="black"/>
<path d="M476.031 168.062H469.969V104.062H476.031V168.062Z" fill="#D1CECE"/>
<path d="M219.423 193H42.4835C36.142 193 31 187.858 31 181.516V80.4835C31 74.142 36.142 69 42.4835 69H219.423C225.765 69 230.907 74.142 230.907 80.4835V181.514C230.907 187.858 225.765 193 219.423 193Z" fill="#363B38"/>
<path d="M219.423 69H216.304V121.267C216.304 156.852 187.458 185.699 151.872 185.699H31.8125C33.4873 189.968 37.6209 193 42.4831 193H219.423C225.764 193 230.906 187.858 230.906 181.516V80.4835C230.906 74.142 225.764 69 219.423 69Z" fill="#2E322F"/>
<path d="M73.1401 109.392H48.616C46.0105 109.392 43.9004 107.28 43.9004 104.676V91.4714C43.9004 88.866 46.0127 86.7559 48.616 86.7559H73.1401C75.7455 86.7559 77.8557 88.8682 77.8557 91.4714V104.676C77.8557 107.28 75.7455 109.392 73.1401 109.392Z" fill="#EAA500"/>
<path d="M75.1685 133.48H46.5885C45.218 133.48 44.1074 132.371 44.1074 130.999C44.1074 129.626 45.218 128.518 46.5885 128.518H75.1707C76.5412 128.518 77.6518 129.626 77.6518 130.999C77.6518 132.371 76.539 133.48 75.1685 133.48Z" fill="#545C56"/>
<path d="M116.924 133.48H88.3443C86.9739 133.48 85.8633 132.371 85.8633 130.999C85.8633 129.626 86.9739 128.518 88.3443 128.518H116.927C118.297 128.518 119.408 129.626 119.408 130.999C119.408 132.371 118.295 133.48 116.924 133.48Z" fill="#545C56"/>
<path d="M158.683 133.48H130.098C128.728 133.48 127.617 132.371 127.617 130.999C127.617 129.626 128.726 128.518 130.098 128.518H158.683C160.053 128.518 161.164 129.626 161.164 130.999C161.164 132.371 160.053 133.48 158.683 133.48Z" fill="#545C56"/>
<path d="M200.439 133.48H171.854C170.484 133.48 169.373 132.371 169.373 130.999C169.373 129.626 170.481 128.518 171.854 128.518H200.439C201.809 128.518 202.92 129.626 202.92 130.999C202.92 132.371 201.809 133.48 200.439 133.48Z" fill="#545C56"/>
<path d="M99.9725 175.644H46.5885C45.218 175.644 44.1074 174.535 44.1074 173.163C44.1074 171.792 45.218 170.682 46.5885 170.682H99.9725C101.343 170.682 102.454 171.79 102.454 173.163C102.454 174.535 101.343 175.644 99.9725 175.644Z" fill="#545C56"/>
<path d="M99.9723 160.761H81.3121C79.9416 160.761 78.8311 159.653 78.8311 158.28C78.8311 156.907 79.9416 155.799 81.3121 155.799H99.9723C101.343 155.799 102.453 156.907 102.453 158.28C102.453 159.653 101.343 160.761 99.9723 160.761Z" fill="#545C56"/>
<path d="M194.609 154.227C191.099 154.227 188.003 155.857 185.928 158.362C183.851 155.857 180.755 154.227 177.248 154.227C170.997 154.227 165.929 159.295 165.929 165.546C165.929 171.796 170.997 176.865 177.248 176.865C180.757 176.865 183.854 175.235 185.928 172.729C188.005 175.235 191.101 176.865 194.609 176.865C200.859 176.865 205.928 171.796 205.928 165.546C205.928 159.293 200.859 154.227 194.609 154.227Z" fill="#545C56"/>
<path d="M187.967 174.644C189.828 176.026 192.109 176.863 194.608 176.863C200.859 176.863 205.927 171.794 205.927 165.544C205.927 163.181 205.199 160.99 203.962 159.176C199.564 165.209 194.155 170.453 187.967 174.644Z" fill="#494F4A"/>
</svg>
