<svg width="715" height="250" viewBox="0 0 715 250" fill="none" xmlns="http://www.w3.org/2000/svg">
<rect width="715" height="250" rx="30" fill="black"/>
<path d="M220.117 58.9486C215.042 64.961 206.923 69.7031 198.803 69.0257C197.788 60.8963 201.763 52.2588 206.415 46.9239C211.49 40.7421 220.371 36.3387 227.56 36C228.406 44.4681 225.107 52.7669 220.117 58.9486ZM227.476 70.6346C215.719 69.9572 205.654 77.3245 200.072 77.3245C194.405 77.3245 185.862 70.9734 176.559 71.1427C164.464 71.3121 153.214 78.1713 147.04 89.0951C134.353 110.943 143.742 143.291 156.006 161.074C162.011 169.881 169.2 179.535 178.673 179.196C187.639 178.857 191.191 173.353 202.017 173.353C212.928 173.353 216.057 179.196 225.53 179.027C235.342 178.857 241.516 170.22 247.521 161.413C254.372 151.421 257.163 141.682 257.332 141.174C257.163 141.005 238.387 133.807 238.217 112.128C238.048 94.0067 253.019 85.3692 253.696 84.8611C245.238 72.3283 232.043 70.9734 227.476 70.6346ZM295.393 46.0771V178.095H315.862V132.96H344.196C370.078 132.96 388.262 115.177 388.262 89.4339C388.262 63.6908 370.416 46.0771 344.873 46.0771H295.393ZM315.862 63.352H339.46C357.221 63.352 367.371 72.8363 367.371 89.5186C367.371 106.201 357.221 115.77 339.375 115.77H315.862V63.352ZM425.647 179.111C438.503 179.111 450.429 172.591 455.842 162.26H456.265V178.095H475.211V112.382C475.211 93.3292 459.986 81.0504 436.558 81.0504C414.82 81.0504 398.75 93.4986 398.158 110.604H416.597C418.119 102.475 425.647 97.1399 435.965 97.1399C448.483 97.1399 455.503 102.983 455.503 113.737V121.02L429.96 122.544C406.193 123.984 393.337 133.722 393.337 150.658C393.337 167.764 406.616 179.111 425.647 179.111ZM431.144 163.445C420.234 163.445 413.298 158.195 413.298 150.15C413.298 141.852 419.98 137.025 432.751 136.263L455.503 134.823V142.275C455.503 154.638 445.016 163.445 431.144 163.445ZM500.5 214C520.461 214 529.849 206.379 538.054 183.261L574 82.3206H553.193L529.088 160.312H528.665L504.56 82.3206H483.161L517.839 178.434L515.978 184.277C512.849 194.185 507.774 197.995 498.724 197.995C497.117 197.995 493.987 197.826 492.719 197.657V213.492C493.903 213.831 498.978 214 500.5 214Z" fill="white"/>
</svg>
