<svg width="715" height="250" viewBox="0 0 715 250" fill="none" xmlns="http://www.w3.org/2000/svg">
<rect width="715" height="250" rx="30" fill="white"/>
<g clip-path="url(#clip0_3588_181)">
<path d="M342.69 129.924V186.066H324.54V47.2207H371.73C383.225 47.2207 394.115 51.4464 402.585 59.2942C411.055 66.5383 415.29 77.4044 415.29 88.8742C415.29 100.344 411.055 110.607 402.585 118.454C394.115 126.302 383.83 130.528 371.73 130.528L342.69 129.924ZM342.69 64.1236V112.418H372.94C379.595 112.418 386.25 110.003 390.485 105.173C400.165 96.1183 400.165 81.0265 391.09 71.9714L390.485 71.3677C385.645 66.5383 379.595 63.5199 372.94 64.1236H342.69Z" fill="#5F6368"/>
<path d="M457.035 88.2695C470.345 88.2695 480.63 91.8916 488.495 99.1357C496.36 106.38 499.99 116.039 499.99 128.112V186.065H483.05V172.784H482.445C475.185 183.65 464.9 189.083 452.8 189.083C442.515 189.083 433.44 186.065 426.18 180.028C419.525 173.991 415.29 165.54 415.29 156.485C415.29 146.826 418.92 138.978 426.18 132.941C433.44 126.905 443.725 124.49 455.825 124.49C466.715 124.49 475.185 126.301 481.84 130.527V126.301C481.84 120.264 479.42 114.228 474.58 110.605C469.74 106.38 463.69 103.965 457.035 103.965C446.75 103.965 438.885 108.191 433.44 116.642L417.71 106.983C427.39 94.3063 440.095 88.2695 457.035 88.2695ZM434.045 157.088C434.045 161.918 436.465 166.144 440.095 168.558C444.33 171.577 449.17 173.388 454.01 173.388C461.27 173.388 468.53 170.369 473.975 164.936C480.025 159.503 483.05 152.863 483.05 145.619C477.605 141.393 469.74 138.978 459.455 138.978C452.195 138.978 446.145 140.789 441.305 144.411C436.465 147.43 434.045 151.655 434.045 157.088Z" fill="#5F6368"/>
<path d="M598 91.2891L538.105 228.323H519.955L542.34 180.633L503.015 91.8927H522.375L550.81 160.108H551.415L579.245 91.8927H598V91.2891Z" fill="#5F6368"/>
<path d="M270.695 117.85C270.695 112.417 270.09 106.984 269.485 101.551H193.86V132.338H236.815C235 141.997 229.555 151.052 221.085 156.485V176.406H247.1C262.225 162.522 270.695 141.997 270.695 117.85Z" fill="#4285F4"/>
<path d="M193.86 195.724C215.64 195.724 233.79 188.48 247.1 176.406L221.085 156.485C213.825 161.315 204.75 164.333 193.86 164.333C173.29 164.333 155.14 150.448 149.09 131.131H122.47V151.656C136.385 178.821 163.61 195.724 193.86 195.724Z" fill="#34A853"/>
<path d="M149.09 131.131C145.46 121.472 145.46 110.606 149.09 100.343V79.8184H122.47C110.975 102.154 110.975 128.716 122.47 151.656L149.09 131.131Z" fill="#FBBC04"/>
<path d="M193.86 67.7458C205.355 67.7458 216.245 71.9715 224.715 79.8193L247.705 56.8797C233.185 43.5988 213.825 35.7511 194.465 36.3547C164.215 36.3547 136.385 53.2576 123.075 80.423L149.695 100.948C155.14 81.6303 173.29 67.7458 193.86 67.7458Z" fill="#EA4335"/>
</g>
<defs>
<clipPath id="clip0_3588_181">
<rect width="484" height="230" fill="white" transform="translate(114 11)"/>
</clipPath>
</defs>
</svg>
