<svg width="715" height="250" viewBox="0 0 715 250" fill="none" xmlns="http://www.w3.org/2000/svg">
<rect width="715" height="250" rx="30" fill="white"/>
<g clip-path="url(#clip0_3588_182)">
<path d="M151.766 40C168.766 40 177.266 40 186.562 42.9219C191.498 44.7273 195.98 47.5879 199.696 51.3039C203.412 55.02 206.273 59.5021 208.078 64.4375C211 73.7344 211 82.2344 211 99.2609V150.713C211 167.766 211 176.319 208.078 185.509C206.273 190.445 203.412 194.927 199.696 198.643C195.98 202.359 191.498 205.22 186.562 207.025C177.266 210 168.766 210 151.766 210H100.234C83.1812 210 74.6281 210 65.4375 207.078C60.5021 205.273 56.02 202.412 52.3039 198.696C48.5879 194.98 45.7273 190.498 43.9219 185.562C41 176.266 41 167.766 41 150.739V99.2344C41 82.1812 41 73.6281 43.9219 64.4375C45.7273 59.5021 48.5879 55.02 52.3039 51.3039C56.02 47.5879 60.5021 44.7273 65.4375 42.9219C74.7344 40 83.2344 40 100.234 40H151.766Z" fill="#00D632"/>
<path d="M153.811 103.22C155.139 104.548 157.344 104.548 158.592 103.22L165.233 96.3133C166.64 94.9852 166.561 92.5945 165.073 91.1602C159.855 86.615 153.788 83.1483 147.223 80.9602L149.322 70.8664C149.773 68.6617 148.126 66.5898 145.922 66.5898H133.065C132.262 66.5985 131.486 66.8829 130.867 67.3954C130.248 67.908 129.824 68.6176 129.665 69.4055L127.806 78.3836C110.7 79.2602 96.1966 87.9461 96.1966 105.743C96.1966 121.149 108.176 127.763 120.847 132.305C132.826 136.874 139.175 138.574 139.175 145.002C139.175 151.616 132.853 155.495 123.503 155.495C115.003 155.495 106.078 152.652 99.1716 145.72C98.8509 145.398 98.47 145.143 98.0507 144.97C97.6313 144.796 97.1818 144.706 96.7279 144.706C96.2739 144.706 95.8244 144.796 95.4051 144.97C94.9858 145.143 94.6049 145.398 94.2841 145.72L87.1123 152.891C86.4375 153.569 86.0586 154.485 86.0586 155.441C86.0586 156.397 86.4375 157.314 87.1123 157.991C92.6904 163.49 99.756 167.474 107.81 169.679L105.844 179.162C105.393 181.366 107.013 183.412 109.218 183.438L122.1 183.545C122.913 183.548 123.702 183.269 124.332 182.756C124.962 182.242 125.393 181.526 125.554 180.729L127.413 171.724C147.994 170.343 160.531 159.001 160.531 142.452C160.531 127.205 148.047 120.777 132.906 115.545C124.247 112.33 116.756 110.126 116.756 103.512C116.756 97.0836 123.742 94.5336 130.754 94.5336C139.679 94.5336 148.259 98.2258 153.864 103.273L153.811 103.22Z" fill="white"/>
</g>
<path d="M310.312 160.188C305.25 162.812 298.953 164.125 291.422 164.125C281.672 164.125 273.859 161.047 267.984 154.891C262.109 148.734 259.172 140.656 259.172 130.656C259.172 119.906 262.469 111.219 269.062 104.594C275.688 97.9688 284.047 94.6562 294.141 94.6562C300.641 94.6562 306.031 95.5781 310.312 97.4219V108.484C305.781 105.797 300.781 104.453 295.312 104.453C288.031 104.453 282.125 106.781 277.594 111.438C273.094 116.094 270.844 122.312 270.844 130.094C270.844 137.5 272.953 143.406 277.172 147.812C281.391 152.188 286.938 154.375 293.812 154.375C300.156 154.375 305.656 152.875 310.312 149.875V160.188ZM358.688 163H348.141V155.5H347.953C344.641 161.25 339.781 164.125 333.375 164.125C328.656 164.125 324.953 162.844 322.266 160.281C319.609 157.719 318.281 154.328 318.281 150.109C318.281 141.047 323.5 135.766 333.938 134.266L348.188 132.25C348.188 125.406 344.938 121.984 338.438 121.984C332.719 121.984 327.562 123.953 322.969 127.891V118.375C328.031 115.375 333.875 113.875 340.5 113.875C352.625 113.875 358.688 119.844 358.688 131.781V163ZM348.188 139.422L338.109 140.828C334.984 141.234 332.625 142 331.031 143.125C329.469 144.219 328.688 146.156 328.688 148.938C328.688 150.969 329.406 152.641 330.844 153.953C332.312 155.234 334.266 155.875 336.703 155.875C340.016 155.875 342.75 154.719 344.906 152.406C347.094 150.062 348.188 147.125 348.188 143.594V139.422ZM369 161.5V151.422C373.062 154.516 377.547 156.062 382.453 156.062C389.016 156.062 392.297 154.125 392.297 150.25C392.297 149.156 392.016 148.234 391.453 147.484C390.891 146.703 390.125 146.016 389.156 145.422C388.219 144.828 387.094 144.297 385.781 143.828C384.5 143.359 383.062 142.828 381.469 142.234C379.5 141.453 377.719 140.625 376.125 139.75C374.562 138.875 373.25 137.891 372.188 136.797C371.156 135.672 370.375 134.406 369.844 133C369.312 131.594 369.047 129.953 369.047 128.078C369.047 125.766 369.594 123.734 370.688 121.984C371.781 120.203 373.25 118.719 375.094 117.531C376.938 116.312 379.031 115.406 381.375 114.812C383.719 114.188 386.141 113.875 388.641 113.875C393.078 113.875 397.047 114.547 400.547 115.891V125.406C397.172 123.094 393.297 121.938 388.922 121.938C387.547 121.938 386.297 122.078 385.172 122.359C384.078 122.641 383.141 123.031 382.359 123.531C381.578 124.031 380.969 124.641 380.531 125.359C380.094 126.047 379.875 126.812 379.875 127.656C379.875 128.688 380.094 129.562 380.531 130.281C380.969 131 381.609 131.641 382.453 132.203C383.328 132.734 384.359 133.234 385.547 133.703C386.766 134.141 388.156 134.625 389.719 135.156C391.781 136 393.625 136.859 395.25 137.734C396.906 138.609 398.312 139.609 399.469 140.734C400.625 141.828 401.516 143.109 402.141 144.578C402.766 146.016 403.078 147.734 403.078 149.734C403.078 152.172 402.516 154.297 401.391 156.109C400.266 157.922 398.766 159.422 396.891 160.609C395.016 161.797 392.844 162.672 390.375 163.234C387.938 163.828 385.359 164.125 382.641 164.125C377.391 164.125 372.844 163.25 369 161.5ZM456.094 163H445.219V136.75C445.219 127.25 442.047 122.5 435.703 122.5C432.516 122.5 429.828 123.875 427.641 126.625C425.453 129.375 424.359 132.891 424.359 137.172V163H413.438V91.9375H424.359V122.969H424.547C428.172 116.906 433.359 113.875 440.109 113.875C450.766 113.875 456.094 120.391 456.094 133.422V163ZM552.188 163H539.953L533.906 145.891H507.469L501.656 163H489.469L514.641 95.7812H527.203L552.188 163ZM530.953 136.797L521.625 109.984C521.344 109.109 521.047 107.703 520.734 105.766H520.547C520.266 107.547 519.953 108.953 519.609 109.984L510.375 136.797H530.953ZM571.312 155.922H571.125V185.078H560.25V115H571.125V123.438H571.312C575.031 117.062 580.469 113.875 587.625 113.875C593.719 113.875 598.469 116.016 601.875 120.297C605.281 124.578 606.984 130.328 606.984 137.547C606.984 145.547 605.062 151.953 601.219 156.766C597.375 161.578 592.125 163.984 585.469 163.984C579.344 163.984 574.625 161.297 571.312 155.922ZM571.031 136.984V142.938C571.031 146.438 572.141 149.406 574.359 151.844C576.609 154.281 579.453 155.5 582.891 155.5C586.922 155.5 590.078 153.938 592.359 150.812C594.672 147.656 595.828 143.266 595.828 137.641C595.828 132.922 594.75 129.234 592.594 126.578C590.469 123.891 587.578 122.547 583.922 122.547C580.047 122.547 576.922 123.922 574.547 126.672C572.203 129.422 571.031 132.859 571.031 136.984ZM629.156 155.922H628.969V185.078H618.094V115H628.969V123.438H629.156C632.875 117.062 638.312 113.875 645.469 113.875C651.562 113.875 656.312 116.016 659.719 120.297C663.125 124.578 664.828 130.328 664.828 137.547C664.828 145.547 662.906 151.953 659.062 156.766C655.219 161.578 649.969 163.984 643.312 163.984C637.188 163.984 632.469 161.297 629.156 155.922ZM628.875 136.984V142.938C628.875 146.438 629.984 149.406 632.203 151.844C634.453 154.281 637.297 155.5 640.734 155.5C644.766 155.5 647.922 153.938 650.203 150.812C652.516 147.656 653.672 143.266 653.672 137.641C653.672 132.922 652.594 129.234 650.438 126.578C648.312 123.891 645.422 122.547 641.766 122.547C637.891 122.547 634.766 123.922 632.391 126.672C630.047 129.422 628.875 132.859 628.875 136.984Z" fill="black"/>
<defs>
<clipPath id="clip0_3588_182">
<rect width="170" height="170" fill="white" transform="translate(41 40)"/>
</clipPath>
</defs>
</svg>
