<svg width="715" height="250" viewBox="0 0 715 250" fill="none" xmlns="http://www.w3.org/2000/svg">
<rect width="715" height="250" rx="30" fill="white"/>
<path d="M368.348 70.0446C368.348 62.0545 375.067 55.5605 382.973 55.5605C390.88 55.5605 397.599 62.0885 397.599 70.0446C397.599 78.0006 391.117 84.6986 382.973 84.6986C374.829 84.6986 368.348 78.2046 368.348 70.0446ZM324.947 57.6005H350.397V200.4H324.947V57.6005ZM395.834 98.4005H370.18V200.4H395.834V98.4005ZM580.262 145.932C599.57 134.032 612.702 116.318 617.894 98.3667H592.24C585.555 115.502 570.217 128.388 553.353 133.862V57.5666H527.699V200.366H553.353V157.9C572.932 162.796 588.406 179.762 593.699 200.366H619.522C615.586 178.742 600.825 158.512 580.262 145.932ZM441.305 109.825C448.023 100.883 461.122 95.6805 471.743 95.6805C491.56 95.6805 507.95 110.199 507.984 132.128V200.366H482.33V137.806C482.33 128.796 478.326 118.392 465.329 118.392C450.059 118.392 441.271 131.958 441.271 147.836V200.434H415.617V98.4685H441.305V109.825Z" fill="black"/>
<path d="M197.833 214C244.685 214 282.667 175.944 282.667 129C282.667 82.0557 244.685 44 197.833 44C150.981 44 113 82.0557 113 129C113 175.944 150.981 214 197.833 214Z" fill="#00D66F"/>
<path d="M193.93 78H167.768C172.858 99.318 187.721 117.542 206.316 129C187.687 140.458 172.858 158.682 167.768 180H193.93C200.412 160.28 218.362 143.144 240.419 139.642V118.324C218.328 114.856 200.378 97.72 193.93 78Z" fill="#011E0F"/>
</svg>
