<svg width="715" height="250" viewBox="0 0 715 250" fill="none" xmlns="http://www.w3.org/2000/svg">
<rect width="715" height="250" rx="30" fill="white"/>
<path d="M370.578 156.188C365.516 158.812 359.219 160.125 351.688 160.125C341.938 160.125 334.125 157.047 328.25 150.891C322.375 144.734 319.438 136.656 319.438 126.656C319.438 115.906 322.734 107.219 329.328 100.594C335.953 93.9688 344.312 90.6562 354.406 90.6562C360.906 90.6562 366.297 91.5781 370.578 93.4219V104.484C366.047 101.797 361.047 100.453 355.578 100.453C348.297 100.453 342.391 102.781 337.859 107.438C333.359 112.094 331.109 118.312 331.109 126.094C331.109 133.5 333.219 139.406 337.438 143.812C341.656 148.188 347.203 150.375 354.078 150.375C360.422 150.375 365.922 148.875 370.578 145.875V156.188ZM409.953 121.359C408.641 120.328 406.75 119.812 404.281 119.812C401.062 119.812 398.375 121.266 396.219 124.172C394.062 127.078 392.984 131.031 392.984 136.031V159H382.109V111H392.984V120.891H393.172C394.234 117.516 395.859 114.891 398.047 113.016C400.266 111.109 402.734 110.156 405.453 110.156C407.422 110.156 408.922 110.453 409.953 111.047V121.359ZM463.062 111L441.406 166.688C436.906 176.625 430.594 181.594 422.469 181.594C420.188 181.594 418.281 181.391 416.75 180.984V171.938C418.469 172.5 420.031 172.781 421.438 172.781C425.5 172.781 428.531 170.781 430.531 166.781L433.766 158.906L414.688 111H426.734L438.172 145.875C438.297 146.312 438.578 147.469 439.016 149.344H439.25C439.406 148.625 439.688 147.5 440.094 145.969L452.094 111H463.062ZM481.391 151.922H481.203V181.078H470.328V111H481.203V119.438H481.391C485.109 113.062 490.547 109.875 497.703 109.875C503.797 109.875 508.547 112.016 511.953 116.297C515.359 120.578 517.062 126.328 517.062 133.547C517.062 141.547 515.141 147.953 511.297 152.766C507.453 157.578 502.203 159.984 495.547 159.984C489.422 159.984 484.703 157.297 481.391 151.922ZM481.109 132.984V138.938C481.109 142.438 482.219 145.406 484.438 147.844C486.688 150.281 489.531 151.5 492.969 151.5C497 151.5 500.156 149.938 502.438 146.812C504.75 143.656 505.906 139.266 505.906 133.641C505.906 128.922 504.828 125.234 502.672 122.578C500.547 119.891 497.656 118.547 494 118.547C490.125 118.547 487 119.922 484.625 122.672C482.281 125.422 481.109 128.859 481.109 132.984ZM553.484 158.484C551.359 159.547 548.562 160.078 545.094 160.078C535.781 160.078 531.125 155.609 531.125 146.672V119.531H523.109V111H531.125V99.8906L542 96.7969V111H553.484V119.531H542V143.531C542 146.375 542.516 148.406 543.547 149.625C544.578 150.844 546.297 151.453 548.703 151.453C550.547 151.453 552.141 150.922 553.484 149.859V158.484ZM583.578 160.125C576.172 160.125 570.25 157.891 565.812 153.422C561.406 148.922 559.203 142.969 559.203 135.562C559.203 127.5 561.5 121.203 566.094 116.672C570.719 112.141 576.938 109.875 584.75 109.875C592.25 109.875 598.094 112.078 602.281 116.484C606.469 120.891 608.562 127 608.562 134.812C608.562 142.469 606.297 148.609 601.766 153.234C597.266 157.828 591.203 160.125 583.578 160.125ZM584.094 118.547C579.844 118.547 576.484 120.031 574.016 123C571.547 125.969 570.312 130.062 570.312 135.281C570.312 140.312 571.562 144.281 574.062 147.188C576.562 150.062 579.906 151.5 584.094 151.5C588.375 151.5 591.656 150.078 593.938 147.234C596.25 144.391 597.406 140.344 597.406 135.094C597.406 129.812 596.25 125.734 593.938 122.859C591.656 119.984 588.375 118.547 584.094 118.547Z" fill="black"/>
<path d="M272.419 123.186C272.419 177.388 227.886 221.328 172.949 221.328C118.011 221.328 73.4766 177.388 73.4766 123.186C73.4766 68.9828 118.011 25.043 172.949 25.043C227.886 25.043 272.419 68.9824 272.419 123.186Z" fill="#E9CB40"/>
<path d="M230.384 84.0356L223.141 111.067C219.046 106.662 214.703 103.051 210.111 100.233C205.586 97.433 200.66 95.3194 195.334 93.8923C185.221 91.1825 176.605 91.7843 169.486 95.6977C162.452 99.5674 157.636 106.347 155.04 116.036C152.444 125.725 153.216 134.035 157.357 140.966C161.582 147.852 168.751 152.65 178.864 155.36C184.527 156.878 190.094 157.542 195.564 157.355C201.101 157.185 206.432 156.166 211.558 154.298L204.29 181.422C198.114 181.817 191.969 181.692 185.855 181.046C179.793 180.48 173.828 179.411 167.963 177.839C147.534 172.366 132.837 163.301 123.871 150.646C114.922 137.929 112.738 123.024 117.318 105.929C121.899 88.8336 131.235 77.0478 145.327 70.5711C159.436 64.0328 176.705 63.5005 197.133 68.9743C203.066 70.5641 208.766 72.6205 214.232 75.1435C219.782 77.6228 225.166 80.5868 230.384 84.0356Z" fill="white"/>
<path d="M173.823 51.4611L161.436 46.3789L156.638 73.7925L169.026 78.8747L173.823 51.4611Z" fill="white"/>
<path d="M205.227 60.7923L193.376 55.4102L189.187 81.9062L201.038 87.2883L205.227 60.7923Z" fill="white"/>
<path d="M145.342 160.762L133.951 155.811L130.015 179.645L141.406 184.597L145.342 160.762Z" fill="white"/>
<path d="M180.318 172.848L167.092 167.766L162.6 191.808L175.826 196.89L180.318 172.848Z" fill="white"/>
</svg>
