<svg width="715" height="250" viewBox="0 0 715 250" fill="none" xmlns="http://www.w3.org/2000/svg">
<rect width="715" height="250" rx="30" fill="#FFA8CD"/>
<g clip-path="url(#clip0_3588_187)">
<path d="M92 124.997C92 79.4221 92 56.6344 103.148 40.4052C107.51 34.0548 112.992 28.5567 119.323 24.1814C135.503 13 158.223 13 203.661 13H511.061C556.497 13 579.218 13 595.398 24.1814C601.731 28.5567 607.213 34.0548 611.573 40.4052C622.721 56.6344 622.721 79.4221 622.721 124.997C622.721 170.573 622.721 193.361 611.573 209.59C607.213 215.94 601.731 221.438 595.398 225.814C579.218 236.995 556.497 236.995 511.061 236.995H203.662C158.223 236.995 135.503 236.995 119.323 225.814C112.992 221.438 107.51 215.94 103.148 209.59C92 193.361 92 170.573 92 124.997Z" fill="#FFA8CD"/>
<path d="M519.649 156.082C510.39 156.082 503.173 148.402 503.173 139.076C503.173 129.75 510.39 122.07 519.649 122.07C528.909 122.07 536.126 129.75 536.126 139.076C536.126 148.402 528.909 156.082 519.649 156.082ZM515.018 174.048C522.917 174.048 532.994 171.03 538.579 159.236L539.122 159.51C536.672 165.956 536.672 169.796 536.672 170.756V172.265H556.552V105.887H536.672V107.396C536.672 108.356 536.672 112.196 539.122 118.641L538.579 118.916C532.994 107.121 522.917 104.104 515.018 104.104C496.092 104.104 482.747 119.19 482.747 139.076C482.747 158.962 496.092 174.048 515.018 174.048ZM448.157 104.104C439.169 104.104 432.088 107.258 426.369 118.916L425.824 118.641C428.276 112.196 428.276 108.356 428.276 107.396V105.887H408.394V172.265H428.82V137.293C428.82 128.104 434.131 122.344 442.71 122.344C451.289 122.344 455.511 127.281 455.511 137.156V172.265H475.937V130.024C475.937 114.938 464.224 104.104 448.157 104.104ZM378.844 118.916L378.299 118.641C380.75 112.196 380.75 108.356 380.75 107.396V105.887H360.869V172.265H381.295L381.431 140.31C381.431 130.984 386.333 125.361 394.368 125.361C396.546 125.361 398.317 125.636 400.36 126.184V105.887C391.372 103.967 383.337 107.396 378.844 118.916ZM313.888 156.082C304.628 156.082 297.41 148.402 297.41 139.076C297.41 129.75 304.628 122.07 313.888 122.07C323.148 122.07 330.365 129.75 330.365 139.076C330.365 148.402 323.148 156.082 313.888 156.082ZM309.258 174.048C317.156 174.048 327.233 171.03 332.816 159.236L333.361 159.51C330.91 165.956 330.91 169.796 330.91 170.756V172.265H350.791V105.887H330.91V107.396C330.91 108.356 330.91 112.196 333.361 118.641L332.816 118.916C327.233 107.121 317.156 104.104 309.258 104.104C290.329 104.104 276.984 119.19 276.984 139.076C276.984 158.962 290.329 174.048 309.258 174.048ZM248.523 172.265H268.95V76.2637H248.523V172.265ZM233.544 76.2637H212.709C212.709 93.4068 202.224 108.767 186.291 119.738L180.027 124.127V76.2637H158.375V172.265H180.027V124.676L215.841 172.265H242.259L207.807 126.733C223.467 115.35 233.68 97.6581 233.544 76.2637Z" fill="#0B051D"/>
</g>
<defs>
<clipPath id="clip0_3588_187">
<rect width="531" height="224" fill="white" transform="translate(92 13)"/>
</clipPath>
</defs>
</svg>
