<svg width="715" height="250" viewBox="0 0 715 250" fill="none" xmlns="http://www.w3.org/2000/svg">
<rect width="715" height="250" rx="30" fill="white"/>
<path fill-rule="evenodd" clip-rule="evenodd" d="M171.1 186.271C165.8 186.271 163.15 183.661 163.15 179.361C163.15 171.391 172.06 168.671 188.33 166.941C188.33 177.601 181.12 186.261 171.09 186.261L171.1 186.271ZM178.12 126.321C166.5 126.321 153.12 131.801 145.86 137.581L152.49 151.531C158.31 146.201 167.73 141.651 176.22 141.651C184.71 141.651 188.74 144.351 188.74 149.781C188.74 153.441 185.79 155.291 180.21 156.011C159.36 158.721 143 164.471 143 180.551C143 193.291 152.08 201.001 166.25 201.001C176.36 201.001 185.37 195.381 189.65 187.961V198.921H208.5V152.981C208.5 134.011 195.31 126.311 178.12 126.311V126.321Z" fill="#101820"/>
<path fill-rule="evenodd" clip-rule="evenodd" d="M367.4 128.391V198.921H387.57V164.931C387.57 148.781 397.35 144.041 404.17 144.041C406.84 144.041 410.43 144.811 412.8 146.591L416.47 127.941C413.36 126.611 410.1 126.311 407.43 126.311C397.06 126.311 390.54 130.901 386.24 140.241V128.381H367.4" fill="#101820"/>
<path fill-rule="evenodd" clip-rule="evenodd" d="M510 126.32C499.33 126.32 491.35 132.63 487.21 138.7C483.36 130.85 475.19 126.32 465.41 126.32C454.74 126.32 447.36 132.25 443.95 139.06V128.39H424.51V198.92H444.69V162.62C444.69 149.58 451.52 143.33 457.89 143.33C463.66 143.33 468.96 147.06 468.96 156.69V198.92H489.12V162.62C489.12 149.43 495.78 143.33 502.45 143.33C507.78 143.33 513.41 147.21 513.41 156.55V198.93H533.57V150.18C533.57 134.32 522.9 126.32 510.01 126.32" fill="#101820"/>
<path fill-rule="evenodd" clip-rule="evenodd" d="M318.28 128.391H300V121.221C300 111.891 305.33 109.221 309.92 109.221C315 109.221 318.95 111.471 318.95 111.471L325.17 97.2509C325.17 97.2509 318.87 93.1309 307.4 93.1309C294.51 93.1309 279.84 100.391 279.84 123.211V128.401H249.24V121.231C249.24 111.901 254.57 109.231 259.16 109.231C261.77 109.231 265.28 109.831 268.19 111.481L274.41 97.2609C270.7 95.0809 264.73 93.1409 256.64 93.1409C243.75 93.1409 229.08 100.401 229.08 123.221V128.411H217.37V143.971H229.08V198.951H249.24V143.971H279.84V198.951H300V143.971H318.28V128.411" fill="#101820"/>
<path d="M350.46 128.391H330.32V198.921H350.46V128.391Z" fill="#101820"/>
<path fill-rule="evenodd" clip-rule="evenodd" d="M331.06 116.4H350.79C362.3 80.21 401.35 48.44 447.82 48.44C504.3 48.44 553.11 91.44 553.11 158.38C553.11 173.4 551.17 186.96 547.48 198.93H566.63L566.82 198.27C569.96 185.92 571.56 172.5 571.56 158.38C571.55 83.73 517.16 30 447.82 30C393.36 30 344.83 67.8 331.06 116.4Z" fill="#4A4AF4"/>
</svg>
